<mxfile host="app.diagrams.net" modified="2024-02-29T07:51:48.111Z" agent="Mozilla/5.0 (Windows NT 10.0; Win64; x64) AppleWebKit/537.36 (KHTML, like Gecko) Chrome/120.0.0.0 YaBrowser/24.1.0.0 Safari/537.36" etag="8xS1mbx9OdHsyQ0P8v-z" version="23.1.8" type="github">
  <diagram name="Страница — 1" id="03B-_4rZ0Qi_AMEKHfT0">
    <mxGraphModel dx="1386" dy="791" grid="1" gridSize="10" guides="1" tooltips="1" connect="1" arrows="1" fold="1" page="1" pageScale="1" pageWidth="827" pageHeight="1169" math="0" shadow="0">
      <root>
        <mxCell id="0" />
        <mxCell id="1" parent="0" />
        <mxCell id="IsB0YOlrs-8yeH-mguFg-6" style="edgeStyle=orthogonalEdgeStyle;rounded=0;orthogonalLoop=1;jettySize=auto;html=1;" edge="1" parent="1" source="IsB0YOlrs-8yeH-mguFg-1" target="IsB0YOlrs-8yeH-mguFg-5">
          <mxGeometry relative="1" as="geometry" />
        </mxCell>
        <mxCell id="IsB0YOlrs-8yeH-mguFg-10" style="edgeStyle=orthogonalEdgeStyle;rounded=0;orthogonalLoop=1;jettySize=auto;html=1;entryX=0;entryY=0.5;entryDx=0;entryDy=0;" edge="1" parent="1" source="IsB0YOlrs-8yeH-mguFg-1" target="IsB0YOlrs-8yeH-mguFg-7">
          <mxGeometry relative="1" as="geometry" />
        </mxCell>
        <mxCell id="IsB0YOlrs-8yeH-mguFg-1" value="Administrator" style="shape=umlActor;verticalLabelPosition=bottom;verticalAlign=top;html=1;outlineConnect=0;" vertex="1" parent="1">
          <mxGeometry x="70" y="525" width="30" height="60" as="geometry" />
        </mxCell>
        <mxCell id="IsB0YOlrs-8yeH-mguFg-11" style="edgeStyle=orthogonalEdgeStyle;rounded=0;orthogonalLoop=1;jettySize=auto;html=1;entryX=0;entryY=0.5;entryDx=0;entryDy=0;" edge="1" parent="1" source="IsB0YOlrs-8yeH-mguFg-2" target="IsB0YOlrs-8yeH-mguFg-7">
          <mxGeometry relative="1" as="geometry" />
        </mxCell>
        <mxCell id="IsB0YOlrs-8yeH-mguFg-13" style="edgeStyle=orthogonalEdgeStyle;rounded=0;orthogonalLoop=1;jettySize=auto;html=1;" edge="1" parent="1" source="IsB0YOlrs-8yeH-mguFg-2" target="IsB0YOlrs-8yeH-mguFg-12">
          <mxGeometry relative="1" as="geometry" />
        </mxCell>
        <mxCell id="IsB0YOlrs-8yeH-mguFg-2" value="User" style="shape=umlActor;verticalLabelPosition=bottom;verticalAlign=top;html=1;outlineConnect=0;" vertex="1" parent="1">
          <mxGeometry x="100" y="330" width="30" height="60" as="geometry" />
        </mxCell>
        <mxCell id="IsB0YOlrs-8yeH-mguFg-4" value="" style="rounded=0;whiteSpace=wrap;html=1;fillColor=none;" vertex="1" parent="1">
          <mxGeometry x="150" y="230" width="640" height="410" as="geometry" />
        </mxCell>
        <mxCell id="IsB0YOlrs-8yeH-mguFg-17" style="edgeStyle=orthogonalEdgeStyle;rounded=0;orthogonalLoop=1;jettySize=auto;html=1;" edge="1" parent="1" source="IsB0YOlrs-8yeH-mguFg-5" target="IsB0YOlrs-8yeH-mguFg-16">
          <mxGeometry relative="1" as="geometry" />
        </mxCell>
        <mxCell id="IsB0YOlrs-8yeH-mguFg-5" value="Administrating" style="rounded=0;whiteSpace=wrap;html=1;fillColor=none;" vertex="1" parent="1">
          <mxGeometry x="250" y="525" width="120" height="60" as="geometry" />
        </mxCell>
        <mxCell id="IsB0YOlrs-8yeH-mguFg-15" style="edgeStyle=orthogonalEdgeStyle;rounded=0;orthogonalLoop=1;jettySize=auto;html=1;" edge="1" parent="1" source="IsB0YOlrs-8yeH-mguFg-7" target="IsB0YOlrs-8yeH-mguFg-14">
          <mxGeometry relative="1" as="geometry" />
        </mxCell>
        <mxCell id="IsB0YOlrs-8yeH-mguFg-7" value="Log in / Sign up" style="rounded=0;whiteSpace=wrap;html=1;" vertex="1" parent="1">
          <mxGeometry x="230" y="415" width="120" height="60" as="geometry" />
        </mxCell>
        <mxCell id="IsB0YOlrs-8yeH-mguFg-12" value="Watch content" style="rounded=0;whiteSpace=wrap;html=1;" vertex="1" parent="1">
          <mxGeometry x="230" y="320" width="120" height="60" as="geometry" />
        </mxCell>
        <mxCell id="IsB0YOlrs-8yeH-mguFg-14" value="Create posts" style="rounded=0;whiteSpace=wrap;html=1;" vertex="1" parent="1">
          <mxGeometry x="414" y="415" width="120" height="60" as="geometry" />
        </mxCell>
        <mxCell id="IsB0YOlrs-8yeH-mguFg-16" value="Delete posts" style="rounded=0;whiteSpace=wrap;html=1;" vertex="1" parent="1">
          <mxGeometry x="414" y="525" width="120" height="60" as="geometry" />
        </mxCell>
      </root>
    </mxGraphModel>
  </diagram>
</mxfile>
